<svg xmlns="http://www.w3.org/2000/svg" xml:space="preserve" style="fill-rule:evenodd;clip-rule:evenodd;stroke-linejoin:round;stroke-miterlimit:2" viewBox="0 0 2334 667"><path d="M306.048 22.083H35.364c-5.649 0-11.769 5.178-11.769 10.827l-.471 612.923L170.941 500.37l145.934 144.522V32.911c0-5.649-5.178-10.827-10.827-10.827Z" style="fill:#147156;fill-rule:nonzero"/><path d="M245.321 392.097v-8.474c0-18.359-16.006-35.307-35.777-35.777h-8.003c-11.769 0-23.067-9.886-23.067-23.067v-7.061c6.591-3.295 10.827-9.886 10.827-18.359 0-10.357-8.474-20.242-18.83-20.242-10.357-.471-20.713 9.415-20.713 19.772s5.178 15.535 11.298 18.83v7.061c0 12.24-9.415 22.596-21.655 22.596h-8.003c-19.772.471-34.365 17.889-35.777 31.541 0 1.883-.471 8.474 0 13.652-6.591 2.354-13.652 9.886-13.652 17.889 0 11.298 8.944 20.242 19.301 20.242 6.12 0 10.827-1.412 17.418-8.003s6.12-18.83.471-24.95l-4.708-4.237v-9.415c.471-9.886 9.415-19.772 18.83-19.772h9.415c11.769 0 22.125-5.178 27.775-15.064 6.12 8.003 19.772 15.064 30.128 15.064h6.12c11.769-.942 20.713 8.474 21.184 18.83v10.357l-4.708 3.766c-9.415 9.886-7.061 24.95 5.178 31.541 11.298 5.649 30.128 0 30.128-17.889 0-11.298-8.003-16.947-13.181-18.83ZM118.217 188.26c28.245-8.944 43.78-25.421 52.254-52.254 7.532 27.304 24.479 44.251 51.783 52.725-25.892 8.003-42.839 24.479-51.783 58.374-8.003-28.245-23.538-49.9-52.254-58.844Z" style="fill:#fff;fill-rule:nonzero"/><path d="M.067 0v-.7h.299q.072 0 .123.023a.17.17 0 0 1 .077.063.17.17 0 0 1 .026.095.16.16 0 0 1-.023.088.15.15 0 0 1-.061.055.2.2 0 0 1-.083.023l.016-.012q.049.002.086.026a.174.174 0 0 1 .08.147.175.175 0 0 1-.106.167.3.3 0 0 1-.126.024zm.15-.122h.134a.12.12 0 0 0 .077-.023Q.455-.168.455-.21T.427-.277a.12.12 0 0 0-.078-.024H.217zm0-.291H.34q.048 0 .074-.022A.08.08 0 0 0 .44-.497a.08.08 0 0 0-.026-.062Q.389-.581.339-.581H.217z" style="fill:#147156;fill-rule:nonzero" transform="translate(379.167 503.61)scale(545.28349)"/><path d="M.393.012a.334.334 0 0 1-.304-.173.4.4 0 0 1-.044-.189q0-.107.044-.188a.34.34 0 0 1 .123-.128.35.35 0 0 1 .181-.046q.103 0 .182.046a.33.33 0 0 1 .123.128.4.4 0 0 1 .044.188.4.4 0 0 1-.044.189.3.3 0 0 1-.123.127.35.35 0 0 1-.182.046m0-.135q.06 0 .104-.028A.2.2 0 0 0 .565-.23a.3.3 0 0 0 .024-.12.3.3 0 0 0-.024-.121.17.17 0 0 0-.068-.078.2.2 0 0 0-.104-.028.18.18 0 0 0-.172.106.3.3 0 0 0-.024.121.3.3 0 0 0 .024.12q.024.05.068.079a.2.2 0 0 0 .104.028" style="fill:#147156;fill-rule:nonzero" transform="translate(705.322 503.61)scale(545.28349)"/><path d="M.393.012a.334.334 0 0 1-.304-.173.4.4 0 0 1-.044-.189q0-.107.044-.188a.34.34 0 0 1 .123-.128.35.35 0 0 1 .181-.046q.103 0 .182.046a.33.33 0 0 1 .123.128.4.4 0 0 1 .044.188.4.4 0 0 1-.044.189.3.3 0 0 1-.123.127.35.35 0 0 1-.182.046m0-.135q.06 0 .104-.028A.2.2 0 0 0 .565-.23a.3.3 0 0 0 .024-.12.3.3 0 0 0-.024-.121.17.17 0 0 0-.068-.078.2.2 0 0 0-.104-.028.18.18 0 0 0-.172.106.3.3 0 0 0-.024.121.3.3 0 0 0 .024.12q.024.05.068.079a.2.2 0 0 0 .104.028" style="fill:#147156;fill-rule:nonzero" transform="translate(1106.892 503.61)scale(545.28349)"/><path d="M.067 0v-.7h.15v.265L.459-.7h.184l-.257.277L.652 0H.469L.28-.307.218-.24V0h-.15Z" style="fill:#147156;fill-rule:nonzero" transform="translate(1508.463 503.61)scale(545.28349)"/><path d="M.067 0v-.7h.18l.204.421L.652-.7h.179V0h-.15v-.447l-.172.349h-.12L.216-.447V0h-.15Z" style="fill:#147156;fill-rule:nonzero" transform="translate(1848.457 503.61)scale(545.28349)"/></svg>