<svg xmlns="http://www.w3.org/2000/svg" viewBox="0 0 150 150">
<!-- SVG created with Arrow, by QuiverAI (https://quiver.ai) -->
  <style type="text/css">.cls-0 {fill:#2a4918;}
.cls-1 {fill:#FFFFFF;}</style>
  <path class="cls-0" d="m103.7 8.9h-57.5c-1.2 0-2.5 1.1-2.5 2.3l-0.1 130.2 31.4-30.9 31 30.7v-130c0-1.2-1.1-2.3-2.3-2.3z"/>
  <path class="cls-1" d="m90.8 87.5v-1.8c0-3.9-3.4-7.5-7.6-7.6h-1.7c-2.5 0-4.9-2.1-4.9-4.9v-1.5c1.4-0.7 2.3-2.1 2.3-3.9 0-2.2-1.8-4.3-4-4.3-2.2-0.1-4.4 2-4.4 4.2s1.1 3.3 2.4 4v1.5c0 2.6-2 4.8-4.6 4.8h-1.7c-4.2 0.1-7.3 3.8-7.6 6.7 0 0.4-0.1 1.8 0 2.9-1.4 0.5-2.9 2.1-2.9 3.8 0 2.4 1.9 4.3 4.1 4.3 1.3 0 2.3-0.3 3.7-1.7s1.3-4 0.1-5.3l-1-0.9v-2c0.1-2.1 2-4.2 4-4.2h2c2.5 0 4.7-1.1 5.9-3.2 1.3 1.7 4.2 3.2 6.4 3.2h1.3c2.5-0.2 4.4 1.8 4.5 4v2.2l-1 0.8c-2 2.1-1.5 5.3 1.1 6.7 2.4 1.2 6.4 0 6.4-3.8 0-2.4-1.7-3.6-2.8-4z"/>
  <path class="cls-1" d="m63.8 44.2c6-1.9 9.3-5.4 11.1-11.1 1.6 5.8 5.2 9.4 11 11.2-5.5 1.7-9.1 5.2-11 12.4-1.7-6-5-10.6-11.1-12.5z"/>
</svg>